<svg width="32" height="33" viewBox="0 0 32 33" fill="none" xmlns="http://www.w3.org/2000/svg">
<g clip-path="url(#clip0_264_103)">
<path d="M16.6609 23.2163C16.4095 23.4676 16.0804 23.5933 15.7513 23.5933C15.4222 23.5933 15.0931 23.4676 14.8416 23.2163L9.38392 17.7586C9.13262 17.5072 9.0068 17.1781 9.0068 16.849C9.0068 16.5199 9.13262 16.1906 9.38392 15.9393L12.1128 13.2104L4.83591 5.93359L3.01657 7.75277C-1.00556 11.7751 -1.00556 18.2845 3.01657 22.3066L10.2936 29.5835C11.2991 30.589 12.4601 31.3433 13.6989 31.846C14.9375 32.3488 16.254 32.6003 17.5704 32.6003C18.887 32.6003 20.2034 32.3488 21.4422 31.846C22.681 31.3433 23.8419 30.589 24.8475 29.5835L26.6666 27.7643L19.3898 20.4875L16.6609 23.2163Z" fill="white"/>
<path d="M17.3333 3.26685H16V5.93351H17.3333C22.4791 5.93351 26.6666 10.121 26.6666 15.2668V16.6002H29.3333V15.2668C29.3333 8.64966 23.9505 3.26685 17.3333 3.26685Z" fill="white"/>
<path d="M21.3333 15.2668V16.6001H24V15.2668C24 11.591 21.0091 8.6001 17.3333 8.6001H16V11.2668H17.3333C19.539 11.2668 21.3333 13.061 21.3333 15.2668Z" fill="white"/>
</g>
<defs>
<clipPath id="clip0_264_103">
<rect width="32" height="32" fill="white" transform="translate(-3.05176e-05 0.600098)"/>
</clipPath>
</defs>
</svg>
