<svg width="64" height="64" viewBox="0 0 64 64" fill="none" xmlns="http://www.w3.org/2000/svg">
<rect width="64" height="64" fill="white"/>
<path d="M11.0224 6.22221L6.2224 11.0222C4.97795 12.2667 4.97795 14.4 6.2224 15.8222L22.578 32.1778L6.2224 48.5333C4.97795 49.7778 4.97795 51.9111 6.2224 53.3333L10.8446 57.9555C12.0891 59.2 14.2224 59.2 15.6446 57.9555L32.0002 41.6L48.3557 57.9555C49.6002 59.2 51.7335 59.2 53.1557 57.9555L57.778 53.3333C59.0224 52.0889 59.0224 49.9555 57.778 48.5333L41.4224 32L57.778 15.6444C59.0224 14.4 59.0224 12.2667 57.778 10.8444L53.1557 6.22221C51.9113 4.97777 49.778 4.97777 48.3557 6.22221L32.0002 22.5778L15.6446 6.22221C14.4002 4.97777 12.2668 4.97777 11.0224 6.22221Z" fill="black"/>
</svg>
