<svg width="30" height="30" viewBox="0 0 30 30" fill="none" xmlns="http://www.w3.org/2000/svg">
<path d="M30.0001 15.0917C30.0001 6.75676 23.2843 0 15.0001 0C6.71578 0 6.10352e-05 6.75676 6.10352e-05 15.0917C6.10352e-05 22.6244 5.48537 28.8678 12.6563 30V19.4541H8.84772V15.0917H12.6563V11.7668C12.6563 7.98444 14.8957 5.89518 18.322 5.89518C19.9632 5.89518 21.6797 6.18994 21.6797 6.18994V9.90391H19.7883C17.9249 9.90391 17.3438 11.0672 17.3438 12.2607V15.0917H21.504L20.8389 19.4541H17.3438V30C24.5148 28.8678 30.0001 22.6244 30.0001 15.0917Z" fill="white"/>
</svg>
