<svg width="32" height="33" viewBox="0 0 32 33" fill="none" xmlns="http://www.w3.org/2000/svg">
<path d="M25.6466 2.93335H6.35331C4.13731 2.93335 2.33331 4.73602 2.33331 6.95335V26.248C2.33331 28.464 4.13598 30.268 6.35331 30.268H25.648C27.864 30.268 29.668 28.4653 29.668 26.248V6.95335C29.6666 4.73602 27.864 2.93335 25.6466 2.93335ZM28.0586 26.2467C28.0586 27.576 26.9773 28.6587 25.6466 28.6587H6.35331C5.02398 28.6587 3.94131 27.5773 3.94131 26.2467V23.3387L10.4293 16.1293L19.1933 24.096L24.04 20.0573L28.06 23.4067L28.0586 26.2467ZM28.0586 21.3147L24.0386 17.9653L19.2373 21.9653L10.316 13.8533L3.94131 20.936V6.95335C3.94131 5.62402 5.02265 4.54135 6.35331 4.54135H25.648C26.9773 4.54135 28.06 5.62268 28.06 6.95335L28.0586 21.3147Z" fill="white"/>
<path d="M21.628 14.9921C23.844 14.9921 25.648 13.1895 25.648 10.9721C25.648 8.75481 23.8453 6.95215 21.628 6.95215C19.412 6.95215 17.608 8.75481 17.608 10.9721C17.608 13.1895 19.4106 14.9921 21.628 14.9921ZM21.628 8.56148C22.9573 8.56148 24.04 9.64282 24.04 10.9735C24.04 12.3041 22.9586 13.3855 21.628 13.3855C20.2973 13.3855 19.216 12.3041 19.216 10.9735C19.216 9.64282 20.2973 8.56148 21.628 8.56148Z" fill="white"/>
</svg>
