<svg width="30" height="30" viewBox="0 0 30 30" fill="none" xmlns="http://www.w3.org/2000/svg">
<path fill-rule="evenodd" clip-rule="evenodd" d="M14.999 0C6.71602 0 -3.05176e-05 6.88563 -3.05176e-05 15.3797C-3.05176e-05 22.174 4.29667 27.9386 10.2588 29.973C11.009 30.1133 11.2453 29.6576 11.2453 29.25C11.2453 28.8847 11.2528 27.8636 11.2453 26.5802C7.0733 27.5098 6.20871 24.5545 6.20871 24.5545C5.52698 22.7778 4.54423 22.3048 4.54423 22.3048C3.18264 21.351 4.64644 21.3693 4.64644 21.3693C6.15151 21.4779 6.94483 22.9547 6.94483 22.9547C8.28298 25.3034 10.4548 24.6246 11.309 24.2324C11.446 23.2383 11.8342 22.5605 12.2627 22.1759C8.93189 21.7875 5.43039 20.4685 5.43039 14.575C5.43039 12.8954 6.0146 11.5235 6.9739 10.4486C6.81917 10.0602 6.30342 8.496 7.12113 6.37801C7.12113 6.37801 8.3805 5.9646 11.2453 7.95568C12.4418 7.61438 13.7256 7.44421 15.0009 7.43845C16.2753 7.44421 17.5581 7.61438 18.7565 7.95568C21.6213 5.96556 22.8788 6.37801 22.8788 6.37801C23.6965 8.496 23.1817 10.0602 23.0279 10.4486C23.9872 11.5235 24.5695 12.8954 24.5695 14.575C24.5695 20.4838 21.0624 21.7837 17.7203 22.1634C18.2586 22.6393 18.7472 23.5623 18.7472 24.9967C18.7472 26.9195 18.7472 28.7481 18.7472 29.2538C18.7472 29.6653 18.9891 30.1201 19.7505 29.9711C25.707 27.9338 30 22.1721 30 15.3797C30 6.88563 23.2839 0 14.999 0Z" fill="white"/>
</svg>
