<svg width="64" height="64" viewBox="0 0 64 64" fill="none" xmlns="http://www.w3.org/2000/svg">
<rect width="64" height="64" fill="white"/>
<path d="M14.8571 20H49.1429C50.72 20 52 18.208 52 16C52 13.792 50.72 12 49.1429 12H14.8571C13.28 12 12 13.792 12 16C12 18.208 13.28 20 14.8571 20ZM49.1429 28H14.8571C13.28 28 12 29.792 12 32C12 34.208 13.28 36 14.8571 36H49.1429C50.72 36 52 34.208 52 32C52 29.792 50.72 28 49.1429 28ZM49.1429 44H14.8571C13.28 44 12 45.792 12 48C12 50.208 13.28 52 14.8571 52H49.1429C50.72 52 52 50.208 52 48C52 45.792 50.72 44 49.1429 44Z" fill="black"/>
</svg>
