<svg width="33" height="33" viewBox="0 0 33 33" fill="none" xmlns="http://www.w3.org/2000/svg">
<path d="M28.3946 12.0348L18.3279 3.85476C17.0946 2.85343 15.3052 2.85343 14.0719 3.85476L4.00657 12.0334C3.65324 12.3201 3.4519 12.7441 3.4519 13.1974V28.5881C3.4519 29.4148 4.12524 30.0948 4.9519 30.0948H11.7012C12.5279 30.0948 13.2012 29.4148 13.2012 28.5881V18.8468H19.1999V28.5881C19.1999 29.4148 19.8732 30.0948 20.6999 30.0948H27.4492C28.2759 30.0948 28.9492 29.4148 28.9492 28.5881V13.1974C28.9479 12.7441 28.7466 12.3201 28.3946 12.0348ZM27.4479 28.5961H20.6986V18.8401C20.6986 18.0134 20.0252 17.3481 19.1986 17.3481H13.1999C12.3732 17.3481 11.6999 18.0134 11.6999 18.8401V28.5961H4.9519V13.1974L15.0186 5.01876C15.7026 4.46143 16.6986 4.46276 17.3826 5.01876L27.4492 13.1974L27.4479 28.5961Z" fill="white"/>
</svg>
