<svg width="30" height="32" viewBox="0 0 30 32" fill="none" xmlns="http://www.w3.org/2000/svg">
<path d="M15.0001 7.67749C10.7662 7.67749 7.25812 11.3549 7.25812 15.9356C7.25812 20.5162 10.7057 24.1936 15.0001 24.1936C19.2944 24.1936 22.742 20.4517 22.742 15.9356C22.742 11.4194 19.2339 7.67749 15.0001 7.67749ZM15.0001 21.2259C12.2783 21.2259 10.0404 18.8388 10.0404 15.9356C10.0404 13.0323 12.2783 10.6452 15.0001 10.6452C17.7218 10.6452 19.9597 13.0323 19.9597 15.9356C19.9597 18.8388 17.7218 21.2259 15.0001 21.2259Z" fill="white"/>
<path d="M23.0444 9.35473C24.0132 9.35473 24.7985 8.51707 24.7985 7.48376C24.7985 6.45045 24.0132 5.61279 23.0444 5.61279C22.0757 5.61279 21.2904 6.45045 21.2904 7.48376C21.2904 8.51707 22.0757 9.35473 23.0444 9.35473Z" fill="white"/>
<path d="M27.5807 2.64516C26.0081 0.903225 23.7702 0 21.2299 0H8.77022C3.50813 0 6.10352e-05 3.74193 6.10352e-05 9.35484V22.5806C6.10352e-05 25.3548 0.846835 27.7419 2.54038 29.4839C4.17345 31.1613 6.35087 32 8.83071 32H21.1694C23.7702 32 25.9476 31.0968 27.5202 29.4839C29.1533 27.8065 30.0001 25.4194 30.0001 22.6452V9.35484C30.0001 6.64516 29.1533 4.32258 27.5807 2.64516ZM27.3388 22.6452C27.3388 24.6452 26.6734 26.2581 25.5847 27.3548C24.496 28.4516 22.9839 29.0323 21.1694 29.0323H8.83071C7.01619 29.0323 5.50409 28.4516 4.41538 27.3548C3.32667 26.1935 2.78232 24.5806 2.78232 22.5806V9.35484C2.78232 7.41935 3.32667 5.80645 4.41538 4.64516C5.44361 3.54839 7.01619 2.96774 8.83071 2.96774H21.2904C23.1049 2.96774 24.617 3.54839 25.7057 4.70968C26.7339 5.87097 27.3388 7.48387 27.3388 9.35484V22.6452Z" fill="white"/>
</svg>
