<svg width="30" height="30" viewBox="0 0 30 30" fill="none" xmlns="http://www.w3.org/2000/svg">
<path d="M25.7775 0H4.22257C3.10269 0 2.02867 0.444866 1.2368 1.23673C0.444931 2.02862 6.10352e-05 3.10262 6.10352e-05 4.2225V25.7775C6.10352e-05 26.8974 0.444931 27.9714 1.2368 28.7633C2.02867 29.5551 3.10269 30 4.22257 30H25.7775C26.8974 30 27.9714 29.5551 28.7632 28.7633C29.5552 27.9714 30 26.8974 30 25.7775V4.2225C30 3.10262 29.5552 2.02862 28.7632 1.23673C27.9714 0.444866 26.8974 0 25.7775 0ZM10.0013 23.97C10.0013 24.045 9.95069 24.1575 9.85131 24.3094C9.70131 24.4106 9.58694 24.4594 9.51194 24.4594H6.04319C5.96819 24.4594 5.85569 24.4106 5.70569 24.3094C5.60444 24.1594 5.55382 24.0469 5.55382 23.97V11.7937C5.55382 11.7187 5.60444 11.6062 5.70382 11.4562C5.85382 11.355 5.96632 11.3044 6.04319 11.3044H9.51194C9.58694 11.3044 9.69944 11.355 9.84944 11.4544C9.95069 11.6044 10.0013 11.7169 10.0013 11.7937V23.97ZM9.43694 9.23062C9.22135 9.45109 8.9629 9.62505 8.67751 9.74178C8.39211 9.85852 8.08583 9.91556 7.77757 9.90937C7.12319 9.90937 6.57194 9.68437 6.11819 9.23062C5.89763 9.01511 5.7236 8.75668 5.60686 8.47127C5.49012 8.18585 5.43314 7.87954 5.43944 7.57125C5.43944 6.94312 5.66632 6.40312 6.11819 5.95125C6.33134 5.72503 6.5885 5.54479 6.87385 5.4216C7.15921 5.29841 7.46675 5.23485 7.77757 5.23485C8.08836 5.23485 8.3959 5.29841 8.68126 5.4216C8.96661 5.54479 9.22377 5.72503 9.43694 5.95125C9.88694 6.40125 10.1138 6.945 10.1138 7.57125C10.1138 8.22562 9.88881 8.77875 9.43694 9.23062ZM24.7406 23.97C24.74 24.0338 24.7265 24.0968 24.7007 24.1551C24.675 24.2136 24.6375 24.2661 24.5906 24.3094C24.5473 24.3561 24.4948 24.3936 24.4365 24.4194C24.3782 24.4451 24.3152 24.4588 24.2512 24.4594H20.7075C20.6325 24.4594 20.52 24.4106 20.37 24.3094C20.2687 24.1594 20.2181 24.0469 20.2181 23.97V16.545C20.2181 15.915 20.1056 15.4256 19.8787 15.0731C19.6012 14.7731 19.1494 14.6231 18.5212 14.6231C17.7169 14.6231 17.1394 14.8594 16.7869 15.3375C16.4607 15.8156 16.2976 16.4944 16.2976 17.3738V23.97C16.297 24.0338 16.2833 24.0968 16.2576 24.1551C16.2318 24.2136 16.1943 24.2661 16.1476 24.3094C16.1039 24.3564 16.0512 24.3939 15.9925 24.4198C15.9338 24.4455 15.8704 24.459 15.8063 24.4594H12.3376C12.2626 24.4594 12.15 24.4106 12 24.3094C11.8988 24.1594 11.8501 24.0469 11.8501 23.97V11.7937C11.8501 11.7187 11.8988 11.6062 12 11.4562C12.15 11.355 12.2626 11.3044 12.3376 11.3044H15.6938C15.7951 11.3044 15.8944 11.3287 15.9938 11.3794C16.0463 11.4056 16.0969 11.4919 16.1457 11.6419V11.8312L16.1832 11.9062V12.2081C17.0138 11.4056 18.1576 11.0025 19.6144 11.0025C21.2475 11.0025 22.5037 11.3925 23.3831 12.1706C24.2887 12.9994 24.7406 14.1956 24.7406 15.7519V23.97Z" fill="white"/>
</svg>
