<svg width="33" height="33" viewBox="0 0 33 33" fill="none" xmlns="http://www.w3.org/2000/svg">
<path d="M30.5067 16.2667C30.9387 15.8249 31.2417 15.2733 31.3827 14.6716C31.5237 14.0699 31.4974 13.4412 31.3067 12.8534C31.1307 12.269 30.7933 11.7463 30.3334 11.3453C29.8734 10.9443 29.3095 10.6813 28.7067 10.5867L22.7867 9.7067C22.6829 9.69163 22.5846 9.65077 22.5008 9.58788C22.4169 9.52499 22.3502 9.44206 22.3067 9.3467L19.64 3.7867C19.3891 3.24177 18.9894 2.77874 18.487 2.45088C17.9846 2.12301 17.3998 1.94363 16.8 1.93337C16.1889 1.93141 15.5903 2.1067 15.0768 2.43801C14.5632 2.76932 14.1568 3.24243 13.9067 3.80003L11.24 9.37337C11.1975 9.46946 11.1311 9.55303 11.047 9.61607C10.963 9.6791 10.8641 9.71949 10.76 9.73337L4.85333 10.6534C4.25112 10.7458 3.68781 11.0081 3.22959 11.4097C2.77138 11.8112 2.43731 12.3352 2.26666 12.92C2.07607 13.5088 2.05114 14.1387 2.19459 14.7408C2.33805 15.3428 2.64436 15.8938 3.07999 16.3334L7.46666 20.6667C7.54154 20.7402 7.5976 20.8307 7.63009 20.9305C7.66258 21.0303 7.67055 21.1365 7.65333 21.24L6.65333 27.3734C6.55498 27.9858 6.6274 28.6135 6.86263 29.1875C7.09786 29.7614 7.48679 30.2594 7.98666 30.6267C8.52138 31.0399 9.17759 31.2649 9.85333 31.2667C10.3797 31.2637 10.8972 31.1309 11.36 30.88L16.6933 27.9734C16.7845 27.9207 16.888 27.893 16.9933 27.893C17.0987 27.893 17.2021 27.9207 17.2933 27.9734L22.6267 30.8534C23.1546 31.1397 23.7541 31.2669 24.3528 31.2196C24.9515 31.1723 25.5237 30.9524 26 30.5867C26.4998 30.2163 26.8885 29.7158 27.1236 29.1399C27.3587 28.5639 27.4312 27.9344 27.3333 27.32L26.3067 21.2C26.2877 21.0955 26.2935 20.988 26.3236 20.8861C26.3537 20.7842 26.4073 20.6908 26.48 20.6134L30.5067 16.2667ZM24.4267 18.7067C24.0473 19.0885 23.7628 19.554 23.596 20.0658C23.4293 20.5776 23.385 21.1213 23.4667 21.6534L24.4933 27.7867C24.5179 27.9052 24.5084 28.0281 24.4659 28.1414C24.4234 28.2547 24.3497 28.3536 24.2533 28.4267C24.154 28.491 24.0383 28.5252 23.92 28.5252C23.8017 28.5252 23.686 28.491 23.5867 28.4267L18.2533 25.5467C17.7952 25.297 17.2818 25.1661 16.76 25.1661C16.2382 25.1661 15.7248 25.297 15.2667 25.5467L9.93333 28.4534C9.83404 28.5176 9.71828 28.5519 9.59999 28.5519C9.48171 28.5519 9.36595 28.5176 9.26666 28.4534C9.16659 28.383 9.08928 28.285 9.04426 28.1713C8.99924 28.0575 8.98849 27.9331 9.01333 27.8134L10.1333 21.6934C10.2201 21.1645 10.1821 20.6226 10.0224 20.111C9.86268 19.5994 9.58562 19.1322 9.21333 18.7467L4.90666 14.4134C4.82986 14.3225 4.77934 14.2124 4.76054 14.0949C4.74174 13.9774 4.75538 13.857 4.79999 13.7467C4.83432 13.6294 4.90153 13.5243 4.99369 13.444C5.08584 13.3636 5.19907 13.3114 5.31999 13.2934L11.2267 12.3867C11.7364 12.2949 12.2163 12.0807 12.6251 11.7625C13.0338 11.4443 13.3592 11.0317 13.5733 10.56L16.24 4.97337C16.2868 4.86332 16.3647 4.76936 16.4642 4.70303C16.5637 4.6367 16.6804 4.6009 16.8 4.60003C16.9203 4.59715 17.0389 4.62975 17.1408 4.69376C17.2428 4.75778 17.3236 4.85038 17.3733 4.96003L20.04 10.5334C20.2649 11.0088 20.6021 11.4223 21.0226 11.7383C21.443 12.0542 21.9341 12.263 22.4533 12.3467L28.3733 13.2267C28.492 13.2412 28.6037 13.2908 28.6939 13.3692C28.7842 13.4476 28.849 13.5512 28.88 13.6667C28.9221 13.7834 28.9294 13.9097 28.901 14.0305C28.8726 14.1512 28.8097 14.261 28.72 14.3467L24.4267 18.7067Z" fill="white"/>
</svg>
