<svg width="33" height="33" viewBox="0 0 33 33" fill="none" xmlns="http://www.w3.org/2000/svg">
<path d="M12.175 19.7111L10.725 21.1611L10.018 20.4541C9.62699 20.0631 8.99499 20.0631 8.60399 20.4541L4.36099 24.6961C3.79499 25.2621 3.48199 26.0161 3.48199 26.8181C3.48199 27.6191 3.79499 28.3731 4.36099 28.9391C4.92699 29.5051 5.68099 29.8181 6.48199 29.8181C7.28399 29.8181 8.03799 29.5051 8.60299 28.9391L12.846 24.6961C13.237 24.3051 13.237 23.6731 12.846 23.2821L12.139 22.5751L13.589 21.1251C15.423 22.6261 17.669 23.3781 19.916 23.3781C22.478 23.3781 25.038 22.4031 26.987 20.4541C28.877 18.5651 29.917 16.0551 29.917 13.3841C29.917 10.7121 28.877 8.20106 26.987 6.31306C25.098 4.42306 22.588 3.38306 19.916 3.38306C17.245 3.38306 14.734 4.42306 12.846 6.31306C9.186 9.97206 8.963 15.7871 12.175 19.7111ZM7.18799 27.5251C6.81099 27.9041 6.15399 27.9021 5.77499 27.5251C5.58699 27.3361 5.48199 27.0851 5.48199 26.8181C5.48199 26.5501 5.58599 26.3001 5.77499 26.1111L9.31099 22.5751L10.725 23.9891L7.18799 27.5251ZM19.917 5.38206C22.055 5.38206 24.063 6.21406 25.574 7.72606C27.086 9.23706 27.918 11.2461 27.918 13.3831C27.918 15.5201 27.086 17.5291 25.574 19.0391C22.457 22.1571 17.382 22.1591 14.261 19.0391C11.142 15.9201 11.142 10.8451 14.261 7.72606C15.771 6.21406 17.78 5.38206 19.917 5.38206Z" fill="white"/>
<path d="M15.7 17.3821H18.7C19.253 17.3821 19.7 16.9351 19.7 16.3821V12.3821C19.7 11.8291 19.253 11.3821 18.7 11.3821H15.7C15.147 11.3821 14.7 11.8291 14.7 12.3821V16.3821C14.7 16.9351 15.147 17.3821 15.7 17.3821ZM16.7 13.3821H17.7V15.3821H16.7V13.3821Z" fill="white"/>
<path d="M21.7 17.6001H24.7C25.253 17.6001 25.7 17.1531 25.7 16.6001V9.6001C25.7 9.0471 25.253 8.6001 24.7 8.6001H21.7C21.147 8.6001 20.7 9.0471 20.7 9.6001V16.6001C20.7 17.1531 21.147 17.6001 21.7 17.6001ZM22.7 10.6001H23.7V15.6001H22.7V10.6001Z" fill="white"/>
</svg>
