<svg width="30" height="30" viewBox="0 0 30 30" fill="none" xmlns="http://www.w3.org/2000/svg">
<path d="M15.2101 13.2676L9.66645 5.51074H6.70972L13.5768 15.1188L14.4413 16.3274L20.3191 24.5585H23.2759L16.0708 14.4763L15.2101 13.2676Z" fill="white"/>
<path d="M27.4907 0H2.50944C1.1235 0 6.10352e-05 1.12344 6.10352e-05 2.50938V27.4906C6.10352e-05 28.8766 1.1235 30 2.50944 30H27.4907C28.8766 30 30.0001 28.8766 30.0001 27.4906V2.50938C30.0001 1.12344 28.8766 0 27.4907 0ZM19.4119 25.9091L13.463 17.4368L6.01566 25.9091H4.09097L12.6095 16.2209L4.09097 4.09091H10.5882L16.2202 12.1118L23.2768 4.09091H25.2014L17.0782 13.3304L25.9092 25.9091H19.4119Z" fill="white"/>
</svg>
